<svg version="1.2" xmlns="http://www.w3.org/2000/svg" viewBox="0 0 633 120" width="633" height="120">
	<title>logo2</title>
	<style>
		.s0 { fill: #ffffff } 
		.s1 { fill: #12ad2e } 
	</style>
	<path id="KABAL.FUN" class="s0" aria-label="KABAL.FUN"  d="m177.1 29h-8.2v66h8.2zm35.8 0h-9.5l-25.8 30.7 26.7 35.3h10.3l-27.4-35.8zm47 66.1h8.8l-21.3-66.1h-10.6l-21.4 66.1h8.5l5.2-16.9h25.7zm-28.8-23.7l10.8-35.4 10.8 35.4zm76.8-11.3c6.5-1.3 12.3-6.2 12.3-14.4 0-11.5-9.4-16.7-25.5-16.7h-15.3v66.1h18.1c15.2 0 25.6-5 25.6-18.7 0-11.3-7.4-15-15.2-16.3zm-12.3-24.4c10.1 0 16 2.3 16 10.5 0 7.2-5.6 11.1-13.2 11.1h-10.8v-21.6zm1.9 52.7h-9.8v-24.7h11.6c8.1 0 15 3.3 15 12.7 0 9.7-6.9 12-16.8 12zm74.9 6.7h8.9l-21.4-66.1h-10.5l-21.4 66.1h8.4l5.2-16.9h25.7zm-28.8-23.7l10.9-35.4 10.7 35.4zm56.6-42.4h-8.3v66.1h34.6l0.9-7.3h-27.2zm40.2 54.8c-3.5 0-6.1 2.8-6.1 6.2 0 3.4 2.6 6.2 6.1 6.2 3.7 0 6.2-2.8 6.2-6.2 0-3.4-2.5-6.2-6.2-6.2zm21.1 11.2h8.3v-29.4h21.9v-6.6h-21.9v-23.3h25.3l1-6.7h-34.6zm91.5-66h-8.4v44.3c0 10.4-4.5 15.7-14.4 15.7-9.8 0-14.4-5.3-14.4-15.7v-44.3h-8.3v45c0 12.9 7.7 22.2 22.7 22.2 14.7 0 22.8-9.3 22.8-22.2zm64.4 0h-7.7v36.9c0 8.2 0.8 18.3 1 20.1l-28-57h-10.9v66h7.8v-31.8c0-12.2-0.7-19.8-1.1-25.1l27.8 56.9h11.1z"/>
	<path id="Layer 1" fill-rule="evenodd" class="s1" d="m60.5 120c-32.9 0-59.5-26.8-59.5-60 0-33.2 26.6-60 59.5-60 32.9 0 59.5 26.8 59.5 60 0 33.2-26.6 60-59.5 60zm-45.1-40.8c2.9 12.2 15.1-3.5 18.2-6.6 5.7-5.8 30.5-27.1 40.5-38.3 3.2-3.5 6.2-6.6 6.2-6.6 0 0 16.5-11.6 2.1-12.4-10.4-0.5-13.8-2.6-21.3 5.9-11.2 12.6-37.5 34.4-42.9 43.6-2.2 3.8-3.7 10.8-2.8 14.4zm73.7 23.4c2.3-1.2 15.5-14.1 13.2-16.5-10.3-11-21.6-27.3-31.4-33.4-5.6-3.5-8.6 3.2-12.4 6.5-3.1 2.6-6.1 3.3-5.1 8.1 2.1 9.9-10.7 73.1 17.9 21.3 5.8-10.5 10.6 17.7 17.8 14z"/>
</svg>