<svg width="20" height="20" viewBox="0 0 20 20" fill="none" xmlns="http://www.w3.org/2000/svg">
<path d="M7.12633 4.47473L5.63242 4.12998C5.35245 4.06537 5.05895 4.14955 4.85578 4.35272L4.35272 4.85578C4.14955 5.05895 4.06537 5.35245 4.12998 5.63242L4.47473 7.12633C4.55267 7.46408 4.4134 7.81481 4.12499 8.00709L2.66283 8.98186C2.431 9.13641 2.29175 9.39661 2.29175 9.67523V10.3249C2.29175 10.6036 2.431 10.8637 2.66283 11.0183L4.12499 11.9931C4.4134 12.1853 4.55267 12.5361 4.47473 12.8738L4.12998 14.3677C4.06537 14.6477 4.14955 14.9412 4.35272 15.1444L4.85578 15.6474C5.05895 15.8506 5.35245 15.9348 5.63242 15.8702L7.12633 15.5254C7.46408 15.4475 7.81481 15.5868 8.00709 15.8752L8.98186 17.3373C9.13641 17.5692 9.39661 17.7084 9.67523 17.7084H10.3249C10.6036 17.7084 10.8637 17.5692 11.0183 17.3373L11.9931 15.8752C12.1853 15.5868 12.5361 15.4475 12.8738 15.5254L14.3677 15.8702C14.6477 15.9348 14.9412 15.8506 15.1444 15.6474L15.6474 15.1444C15.8506 14.9412 15.9348 14.6477 15.8702 14.3677L15.5254 12.8738C15.4475 12.5361 15.5868 12.1853 15.8752 11.9931L17.3373 11.0183C17.5692 10.8637 17.7084 10.6036 17.7084 10.3249V9.67523C17.7084 9.39661 17.5692 9.13641 17.3373 8.98186L15.8752 8.00709C15.5868 7.81481 15.4475 7.46408 15.5254 7.12633L15.8702 5.63242C15.9348 5.35245 15.8506 5.05895 15.6474 4.85578L15.1444 4.35272C14.9412 4.14955 14.6477 4.06537 14.3677 4.12998L12.8738 4.47473C12.5361 4.55267 12.1853 4.4134 11.9931 4.12499L11.0183 2.66283C10.8637 2.431 10.6036 2.29175 10.3249 2.29175H9.67523C9.39661 2.29175 9.13641 2.431 8.98186 2.66283L8.00709 4.12499C7.81481 4.4134 7.46408 4.55267 7.12633 4.47473Z" stroke="#13CD50" stroke-width="1.5" stroke-linejoin="round"/>
<path d="M12.2917 10.0001C12.2917 11.2657 11.2657 12.2917 10.0001 12.2917C8.73443 12.2917 7.70841 11.2657 7.70841 10.0001C7.70841 8.73443 8.73443 7.70841 10.0001 7.70841C11.2657 7.70841 12.2917 8.73443 12.2917 10.0001Z" stroke="#13CD50" stroke-width="1.5" stroke-linejoin="round"/>
</svg>
