<svg width="20" height="20" viewBox="0 0 20 20" fill="none" xmlns="http://www.w3.org/2000/svg">
<path d="M1.31748 8.89938C6.46345 6.66513 9.89405 5.19202 11.6094 4.48035C16.5127 2.44814 17.5302 2.09519 18.1949 2.08337C18.341 2.08089 18.6664 2.1169 18.8788 2.28816C19.0553 2.43247 19.105 2.62764 19.1298 2.76453C19.1518 2.90142 19.1822 3.21341 19.1574 3.45696C18.8926 6.23878 17.7427 12.9894 17.158 16.1052C16.9126 17.4236 16.4244 17.8656 15.9528 17.9087C14.927 18.0027 14.1492 17.2336 13.1564 16.5851C11.6038 15.57 10.7269 14.9383 9.21842 13.9479C7.47552 12.8033 8.60617 12.1741 9.59896 11.146C9.85819 10.8769 14.3754 6.7825 14.4608 6.41113C14.4719 6.36468 14.483 6.1915 14.3782 6.10024C14.2761 6.0087 14.1244 6.04004 14.0141 6.06478C13.8569 6.09996 11.3776 7.73497 6.56812 10.9695C5.8649 11.4517 5.22787 11.6867 4.65426 11.6743C4.02549 11.6609 2.81216 11.3192 1.91037 11.0273C0.807272 10.6691 -0.0724949 10.4797 0.0047222 9.87137C0.0433308 9.5547 0.481884 9.23061 1.31748 8.89938Z" fill="white"/>
</svg>
