<svg width="20" height="20" viewBox="0 0 20 20" fill="none" xmlns="http://www.w3.org/2000/svg">
<path fill-rule="evenodd" clip-rule="evenodd" d="M1.625 4.99967C1.625 4.0792 2.37119 3.33301 3.29167 3.33301H14.5834C15.734 3.33301 16.6667 4.26575 16.6667 5.41634C16.6667 5.44908 16.6642 5.48123 16.6593 5.51261C17.6036 5.7958 18.2917 6.67155 18.2917 7.70801V14.3747C18.2917 15.6403 17.2657 16.6663 16 16.6663H3.91667C2.65101 16.6663 1.625 15.6403 1.625 14.3747L1.625 4.99967ZM2.875 4.99967C2.875 5.22979 3.06155 5.41634 3.29167 5.41634H15.4167C15.4167 4.9561 15.0436 4.58301 14.5834 4.58301H3.29167C3.06155 4.58301 2.875 4.76956 2.875 4.99967ZM12.5 11.0413C12.5 10.351 13.0597 9.79134 13.75 9.79134C14.4404 9.79134 15 10.351 15 11.0413C15 11.7317 14.4404 12.2913 13.75 12.2913C13.0597 12.2913 12.5 11.7317 12.5 11.0413Z" fill="white" fill-opacity="0.5"/>
</svg>
