<svg width="16" height="16" viewBox="0 0 16 16" fill="none" xmlns="http://www.w3.org/2000/svg">
<path d="M8.00004 14.1666C11.4058 14.1666 14.1667 11.4057 14.1667 7.99992C14.1667 4.59416 11.4058 1.83325 8.00004 1.83325M8.00004 14.1666C4.59428 14.1666 1.83337 11.4057 1.83337 7.99992C1.83337 4.59416 4.59428 1.83325 8.00004 1.83325M8.00004 14.1666C6.43523 14.1666 5.16671 11.4057 5.16671 7.99992C5.16671 4.59416 6.43523 1.83325 8.00004 1.83325M8.00004 14.1666C9.56485 14.1666 10.8334 11.4057 10.8334 7.99992C10.8334 4.59416 9.56485 1.83325 8.00004 1.83325M14 7.99992H2.00004" stroke="white" stroke-width="1.5" stroke-linecap="square"/>
</svg>
